<?xml version="1.0" encoding="iso-8859-1"?>
<!-- Uploaded to: SVG Repo, www.svgrepo.com, Generator: SVG Repo Mixer Tools -->
<svg version="1.1" id="Layer_1" xmlns="http://www.w3.org/2000/svg" xmlns:xlink="http://www.w3.org/1999/xlink" 
	 viewBox="0 0 512 512" xml:space="preserve">
<path style="fill:#2C6991;" d="M256.002,512c-9.225,0-16.704-7.479-16.704-16.704v-13.363c0-9.225,7.479-16.704,16.704-16.704
	s16.704,7.479,16.704,16.704v13.363C272.706,504.522,265.227,512,256.002,512z"/>
<path style="fill:#528FB3;" d="M256.002,512c-9.225,0-16.704-7.479-16.704-16.704v-13.363c0-9.225,7.479-16.704,16.704-16.704V512z"
	/>
<path style="fill:#F6D76F;" d="M366.508,46.024C337.01,16.345,297.802,0,255.88,0s-80.949,16.345-110.447,46.024
	c-29.431,29.613-45.337,69.03-45.337,110.988v18.782c0,24.518,5.413,49.137,16.112,71.201l2.605,5.617
	c6.856,14.138,16.259,27.661,27.706,40.191c18.099,19.811,28.189,45.502,28.189,72.339v70.74c0,28.309,22.667,51.619,50.977,51.619
	h60.63c28.31,0,50.977-23.309,50.977-51.619v-70.74c0-26.838,10.149-52.528,28.249-72.339c11.448-12.53,20.82-26.053,27.674-40.189
	l2.532-5.623c10.697-22.06,16.156-46.681,16.156-71.199v-18.782C411.905,115.054,395.939,75.637,366.508,46.024z"/>
<path style="fill:#FAEAB6;" d="M255.88,0c-41.921,0-80.949,16.345-110.447,46.024c-29.431,29.613-45.337,69.03-45.337,110.988
	v18.782c0,24.518,5.413,49.137,16.112,71.201l2.605,5.617c6.856,14.138,16.259,27.661,27.706,40.191
	c18.099,19.811,28.189,45.502,28.189,72.339v70.74c0,28.309,22.667,51.619,50.977,51.619h30.315L255.88,0z"/>
<path style="fill:#CCCCCC;" d="M174.709,365.005v70.877c0,28.309,22.667,51.619,50.977,51.619h60.63
	c28.31,0,50.977-23.309,50.977-51.619v-70.877H174.709z"/>
<g>
	<path style="fill:#E1E1E1;" d="M174.709,365.005v70.877c0,28.309,22.667,51.619,50.977,51.619h30.315V365.005H174.709z"/>
	<path style="fill:#E1E1E1;" d="M174.709,398.413v37.469c0,28.309,22.667,51.619,50.977,51.619h30.315v-89.088H174.709z"/>
</g>
<rect x="174.713" y="398.412" style="fill:#ABA8AB;" width="162.585" height="37.862"/>
<rect x="174.713" y="398.412" style="fill:#CCCCCC;" width="81.293" height="37.862"/>
</svg>