<?xml version="1.0" encoding="utf-8"?>
<!-- Generator: Adobe Illustrator 22.0.0, SVG Export Plug-In . SVG Version: 6.00 Build 0)  -->
<svg version="1.1" id="Objects" xmlns="http://www.w3.org/2000/svg" xmlns:xlink="http://www.w3.org/1999/xlink" x="0px" y="0px"
	 viewBox="0 0 800 800" style="enable-background:new 0 0 800 800;" xml:space="preserve">
<style type="text/css">
	.st0{opacity:0.5;}
	.st1{fill:#AFB457;}
	.st2{fill:#838741;}
</style>
<g>
	<g class="st0">
		<ellipse transform="matrix(0.1295 -0.9916 0.9916 0.1295 -232.927 447.6905)" cx="138.5" cy="356.5" rx="150.9" ry="73.4"/>
		<path d="M767.7,445.2L767.7,445.2c10.2-78.4-43.3-150.8-121.3-164l-390.1-65.9c-90.5-15.3-115.7,55.5-127.6,146.5l0,0
			c-11.9,91-5.7,165.8,85.7,174.3l394,36.5C687.1,579.9,757.5,523.6,767.7,445.2z"/>
		<path d="M765.5,339.7L765.5,339.7c14.8-53.7-28.5-113.1-97.9-134.4L319.7,98.5c-80.7-24.8-162,6.5-179.2,68.8l0,0
			c-17.2,62.3,36.6,130.9,118.6,151l353.4,86.6C683.1,422.2,750.7,393.4,765.5,339.7z"/>
		<path d="M738.5,546.6L738.5,546.6c0.5,55.7-56.5,102-129.2,104.7l-363.6,13.9c-84.3,3.2-154.9-47.9-155.5-112.5l0,0
			c-0.6-64.7,69-117.1,153.4-115.4l363.8,7C680,445.7,737.9,490.9,738.5,546.6z"/>
		<path d="M97,376.6l6.6-50.2l-43.9-5.7c-13.9-1.8-26.5,8-28.4,21.8l0,0c-1.8,13.9,8,26.5,21.8,28.4L97,376.6z"/>
	</g>
	<g>
		<g>
			
				<ellipse transform="matrix(0.1295 -0.9916 0.9916 0.1295 -231.9355 446.82)" class="st1" cx="138.5" cy="355.5" rx="150.9" ry="73.4"/>
			<g>
				<path class="st2" d="M767.7,444.2L767.7,444.2c10.2-78.4-43.3-150.8-121.3-164l-390.1-65.9c-90.5-15.3-115.7,55.5-127.6,146.5
					l0,0c-11.9,91-5.7,165.8,85.7,174.3l394,36.5C687.1,578.9,757.5,522.6,767.7,444.2z"/>
				<path class="st2" d="M765.5,338.7L765.5,338.7c14.8-53.7-28.5-113.1-97.9-134.4L319.7,97.5c-80.7-24.8-162,6.5-179.2,68.8l0,0
					c-17.2,62.3,36.6,130.9,118.6,151l353.4,86.6C683.1,421.2,750.7,392.4,765.5,338.7z"/>
				<path class="st2" d="M738.5,545.6L738.5,545.6c0.5,55.7-56.5,102-129.2,104.7l-363.6,13.9c-84.3,3.2-154.9-47.9-155.5-112.5l0,0
					c-0.6-64.7,69-117.1,153.4-115.4l363.8,7C680,444.7,737.9,489.9,738.5,545.6z"/>
			</g>
			<path class="st1" d="M97,375.6l6.6-50.2l-43.9-5.7c-13.9-1.8-26.5,8-28.4,21.8l0,0c-1.8,13.9,8,26.5,21.8,28.4L97,375.6z"/>
		</g>
	</g>
</g>
</svg>
