<?xml version="1.0" encoding="utf-8"?>
<!-- Generator: Adobe Illustrator 22.0.0, SVG Export Plug-In . SVG Version: 6.00 Build 0)  -->
<svg version="1.1" xmlns="http://www.w3.org/2000/svg" xmlns:xlink="http://www.w3.org/1999/xlink" x="0px" y="0px"
	 viewBox="0 0 500 500" style="enable-background:new 0 0 500 500;" xml:space="preserve">
<style type="text/css">
	.st0{fill:#FF616C;}
	.st1{opacity:0.1;}
	.st2{fill:#FFEDBD;}
	.st3{opacity:0.15;}
	.st4{fill:#007D70;}
</style>
<g id="BACKGROUND">
</g>
<g id="OBJECTS">
	<g>
		<g>
			<path class="st0" d="M350.7,79c-52.1-35.6-205.9-111.3-266,32.6C15.1,278.1-20,379.5,53,449.7c78.6,75.5,177.5,21.1,348.1-89.6
				C559.9,257,405.2,116.3,350.7,79z"/>
			<g>
				<g>
					<path class="st1" d="M388.2,282.8c-6.1,1.7-40.5,18.1-37.8,26.1c2.7,8.1,42.1,4.3,48.3,2.6c6.2-1.7,13-10.8,10-18.7
						C405.8,285,394.2,281.2,388.2,282.8z"/>
					<path class="st2" d="M389.2,289.3c-4.2,1.2-31.4,12.6-29.8,17.1c1.6,4.6,31.5,0.3,35.8-0.9c4.3-1.2,6.3-5.8,4.7-10.3
						C398.2,290.8,393.5,288.1,389.2,289.3z"/>
				</g>
				<g>
					<path class="st1" d="M166.4,99.8c-4.8,3.1-30.8,26.1-26.8,31.5c4,5.5,36.7-9,41.6-12.2c4.8-3.1,8.7-12.2,4.6-17.5
						C181.7,96.4,171.2,96.7,166.4,99.8z"/>
					<path class="st2" d="M168.6,104.5c-3.3,2.1-24.1,19.1-21.8,22.2c2.3,3.1,26.9-9,30.2-11.1c3.3-2.2,4.2-6.4,1.8-9.4
						C176.5,103.1,171.9,102.4,168.6,104.5z"/>
				</g>
				<g>
					<path class="st1" d="M297.6,296.3c-4.1,5-23.9,40.2-17.5,45.9c6.4,5.8,36.4-20.7,40.5-25.9c4-5.1,4.9-17.2-1.4-22.7
						C312.8,288.2,301.7,291.3,297.6,296.3z"/>
					<path class="st2" d="M301.7,301.6c-2.8,3.5-19.1,29.8-15.5,33c3.6,3.2,25.7-18.1,28.5-21.6c2.8-3.5,2.1-8.9-1.5-12
						C309.7,297.8,304.5,298.1,301.7,301.6z"/>
				</g>
				<g>
					<path class="st1" d="M98.3,366c-4.9,5.4-29.8,43.6-23.8,49.9c6,6.3,40.6-22.6,45.5-28.2c4.8-5.5,7.2-18.7,1.2-24.6
						C115.3,357.2,103.2,360.6,98.3,366z"/>
					<path class="st2" d="M102,371.7c-3.4,3.8-23.5,32.3-20.1,35.9c3.4,3.5,29.1-19.7,32.5-23.5c3.4-3.8,3.3-9.7-0.1-13.1
						C110.8,367.6,105.4,367.9,102,371.7z"/>
				</g>
				<g>
					<path class="st1" d="M380,220.8c-2.5,3.3-13.3,26.8-7.9,31c5.4,4.2,24.8-12.9,27.3-16.3c2.5-3.4,1.8-11.7-3.5-15.8
						C390.5,215.7,382.4,217.5,380,220.8z"/>
					<path class="st2" d="M383.6,224.6c-1.7,2.3-10.9,19.8-7.9,22.2c3.1,2.4,17.1-11.5,18.9-13.8c1.7-2.3,0.6-6.1-2.4-8.4
						C389.2,222.3,385.3,222.3,383.6,224.6z"/>
				</g>
				<g>
					<path class="st1" d="M259.1,245.2c-2.8,3.4-15.5,27.7-10.4,32c5.2,4.3,26.2-13.3,29-16.8c2.8-3.5,2.7-12.1-2.4-16.3
						C270.2,240,261.9,241.8,259.1,245.2z"/>
					<path class="st2" d="M262.6,249.2c-1.9,2.4-12.6,20.5-9.7,22.9c2.9,2.4,18.3-11.9,20.2-14.3c1.9-2.4,1.1-6.3-1.8-8.7
						C268.4,246.8,264.5,246.8,262.6,249.2z"/>
				</g>
				<g>
					<path class="st1" d="M245.6,178.8c-0.9,4-1.4,29.8,4.8,31.2c6.2,1.5,16.4-22,17.3-26.1c0.8-4-2.8-11.3-8.9-12.7
						C252.8,169.8,246.5,174.7,245.6,178.8z"/>
					<path class="st2" d="M250.2,180.7c-0.6,2.8-2,22.4,1.6,23.3c3.5,0.8,10.4-17.5,11-20.3c0.6-2.8-1.7-5.7-5.2-6.5
						C254.1,176.3,250.8,177.9,250.2,180.7z"/>
				</g>
				<g>
					<path class="st1" d="M206.4,296c-2.8,3.8-15.4,30.3-10,34.6c5.4,4.3,26.7-15.6,29.5-19.5c2.8-3.8,2.6-13-2.8-17.1
						C217.7,289.9,209.2,292.3,206.4,296z"/>
					<path class="st2" d="M210.1,300c-1.9,2.6-12.6,22.5-9.5,24.9c3.1,2.4,18.6-13.6,20.6-16.3c1.9-2.7,1-6.7-2.1-9.1
						C216,297.2,212,297.4,210.1,300z"/>
				</g>
				<g>
					<path class="st1" d="M260.2,131.1c-4.2,0.5-28.4,7.8-27.5,13.5c0.9,5.7,26.9,7.4,31.1,6.9c4.2-0.5,9.7-5.8,8.7-11.5
						C271.5,134.5,264.4,130.7,260.2,131.1z"/>
					<path class="st2" d="M260.2,135.6c-2.9,0.3-21.8,5.1-21.3,8.3c0.5,3.2,20.4,3.6,23.3,3.3c2.9-0.3,4.8-3.2,4.2-6.4
						C265.9,137.6,263.1,135.3,260.2,135.6z"/>
				</g>
				<g>
					<path class="st1" d="M198.4,222.2c-3.4,2.8-21,23.6-16.9,28.6c4.1,5,28.3-8,31.8-10.9c3.4-2.8,5.3-11.1,1.1-15.9
						C210.3,219.2,201.8,219.5,198.4,222.2z"/>
					<path class="st2" d="M200.9,226.6c-2.4,1.9-16.6,17.3-14.3,20.1c2.3,2.8,20.4-8.1,22.8-10c2.4-2,2.4-5.8,0.1-8.6
						C207.1,225.3,203.3,224.6,200.9,226.6z"/>
				</g>
				<g>
					<path class="st1" d="M105.7,224.4c-2.1,4-10.4,30.4-4.6,33.2c5.8,2.8,23.2-19.4,25.3-23.4c2.1-4,0.6-12.2-5.1-14.9
						C115.5,216.6,107.8,220.4,105.7,224.4z"/>
					<path class="st2" d="M109.7,227.3c-1.5,2.8-8.8,22.7-5.5,24.3c3.3,1.6,15.8-16,17.2-18.7c1.4-2.8,0-6.3-3.2-7.8
						C114.9,223.5,111.1,224.5,109.7,227.3z"/>
				</g>
				<g>
					<path class="st1" d="M170.1,65.4c-4,0.4-27.7,7.2-27.2,12.4c0.6,5.2,25.4,6.9,29.5,6.4c4.1-0.4,9.7-5.3,9-10.5
						C180.7,68.5,174.1,65,170.1,65.4z"/>
					<path class="st2" d="M169.8,69.5c-2.8,0.3-21.3,4.7-20.9,7.6c0.3,3,19.5,3.3,22.3,3c2.8-0.3,4.8-2.9,4.4-5.9
						C175.1,71.3,172.6,69.2,169.8,69.5z"/>
				</g>
				<g>
					<path class="st1" d="M184.9,156.4c-2.6,3.2-14.6,25.6-9.7,29.2c4.9,3.7,24.8-13,27.4-16.3c2.6-3.2,2.6-11-2.3-14.5
						C195.4,151.2,187.5,153.2,184.9,156.4z"/>
					<path class="st2" d="M188.2,159.8c-1.8,2.2-11.9,18.9-9.1,21c2.8,2.1,17.4-11.4,19.2-13.7c1.8-2.2,1-5.7-1.8-7.7
						C193.7,157.4,190,157.6,188.2,159.8z"/>
				</g>
				<g>
					<path class="st1" d="M256.7,373.5c-4.8,0.7-32.7,10.6-31.7,18.1c1,7.6,31,9.7,35.8,9c4.9-0.7,11.2-7.8,10-15.3
						C269.7,377.8,261.5,372.8,256.7,373.5z"/>
					<path class="st2" d="M256.7,379.4c-3.3,0.5-25.2,7-24.6,11.2c0.6,4.3,23.6,4.6,26.9,4.2c3.4-0.5,5.5-4.3,4.9-8.6
						C263.2,382,260,379,256.7,379.4z"/>
				</g>
				<g>
					<path class="st1" d="M166.2,397.9c-4.1,3.1-25.5,27-21.5,33.4c4,6.5,32.1-7.4,36.2-10.6c4.1-3.2,6.9-13,2.9-19.3
						C179.7,395.2,170.3,394.8,166.2,397.9z"/>
					<path class="st2" d="M168.6,403.4c-2.8,2.2-20.1,19.6-17.8,23.3c2.3,3.7,23.3-8.1,26.1-10.3c2.8-2.2,3.2-6.9,0.9-10.4
						C175.5,402.4,171.4,401.3,168.6,403.4z"/>
				</g>
				<g>
					<path class="st1" d="M132.4,286.9c-3.2,3.6-18.3,29-13.4,33.6c5,4.6,28.1-13.8,31.3-17.4c3.1-3.6,3.8-12.7-1.1-17.1
						C144.2,281.5,135.5,283.4,132.4,286.9z"/>
					<path class="st2" d="M135.6,291.1c-2.2,2.5-14.7,21.4-11.9,24c2.8,2.6,19.9-12.3,22.1-14.8c2.2-2.5,1.7-6.6-1.1-9.1
						C141.8,288.6,137.8,288.6,135.6,291.1z"/>
				</g>
				<g>
					<path class="st1" d="M105,154.4c-3,3.1-17.4,24.7-12.9,28.6c4.5,3.9,26.2-11.7,29.2-14.8c3-3.1,3.8-10.8-0.8-14.6
						C116,149.8,107.9,151.4,105,154.4z"/>
					<path class="st2" d="M107.9,158c-2.1,2.1-13.9,18.3-11.3,20.5c2.6,2.2,18.5-10.5,20.6-12.6c2.1-2.1,1.6-5.6-0.9-7.8
						C113.7,155.9,110,155.9,107.9,158z"/>
				</g>
				<g>
					<path class="st1" d="M51,286.5c0.3,4.7,7.7,32.4,14.5,31.3c6.8-1,10-30.3,9.6-34.9c-0.4-4.6-6.3-10.8-12.9-9.9
						C55.7,274.1,50.7,281.9,51,286.5z"/>
					<path class="st2" d="M56.3,286.7c0.2,3.2,4.8,24.8,8.7,24.2c3.8-0.6,5.3-23,5-26.2c-0.2-3.2-3.5-5.4-7.3-4.8
						C59,280.4,56.1,283.4,56.3,286.7z"/>
				</g>
				<g>
					<path class="st1" d="M315.1,219.7c-1.3,4.1-3.9,30.7,2.3,33c6.2,2.3,18.7-20.9,19.9-25c1.2-4.1-1.9-12-8-14.2
						C323.2,211.2,316.4,215.6,315.1,219.7z"/>
					<path class="st2" d="M319.7,222.2c-0.9,2.8-3.9,23.1-0.4,24.3c3.5,1.3,12.1-17,13-19.8c0.8-2.8-1.3-6.1-4.8-7.4
						C324.1,218.1,320.5,219.3,319.7,222.2z"/>
				</g>
			</g>
		</g>
		<path class="st3" d="M38.6,433.4c-2.5-3.3-4.9-6.8-7-10.2c-0.7-1.2-1.5-2.3-2.2-3.5c-2.5-4.4-4.6-8.9-6.5-13.5
			c-0.6-1.6-1.2-3.2-1.8-4.8c-1.2-3.2-2.2-6.5-3.1-9.9c-0.5-2-1.1-4-1.5-6c-0.8-3.7-1.4-7.4-1.9-11.2c-0.4-3.1-0.7-6.2-1-9.3
			c-0.2-3.2-0.4-6.3-0.5-9.6c-0.1-2.8,0-5.7,0-8.6c0.1-2.6,0.2-5.3,0.4-8c0.4-6.4,1.1-12.9,2-19.7c0.2-1.5,0.3-2.9,0.6-4.3
			c0.6-3.9,1.4-7.9,2.2-12c0.4-1.9,0.8-3.8,1.2-5.8c0.9-4.3,1.8-8.5,2.9-13c0.1-0.3,0.2-0.7,0.3-1c2.5-10.1,5.4-20.5,8.8-31.3
			c0.1-0.4,0.2-0.7,0.3-1.1c1.7-5.5,3.5-11.2,5.5-16.9c-5.8,71.2,8,120.3,57.1,152.4c87.3,57,171.4-6.7,311.4-129.8
			c5.1-4.5,9.6-9,13.8-13.4c-12.5-13.5-24.3-28.1-35-43.8c-22.2-32.6-36.6-64.7-43.3-93.2l-1.6-1.1c1.1,19.2-2.5,41.1-11.4,63.3
			c-9.9,24.6-24.8,45.5-41.9,60.6c-2.4-24.4,1.8-51.9,12.9-77.9c8.8-20.6,20.8-37.7,34.1-50.3c-16.7,10.8-38.9,19.4-64.4,23.7
			c-26.8,4.5-52.8,3.6-74.5-1.5c18.6-13.1,43.6-23.3,72.1-28c2.5-0.4,4.9-0.7,7.4-1c-17.4-3-35.2-7.4-53-13.6
			c-30.7-10.7-57.1-25-77.7-40.7c8.7-4.9,17.9-8.4,27.2-10.6c23.1,2.1,47.8,7.2,72.8,15.7c17.6,6,34,13.2,49.2,21.4
			c16.7,6.5,37.6,13.1,44.3,8.7c1-0.6,1.9-1.5,2.9-2.6c4.1,2.5,7.9,5,11.2,7.3c3.2,2.2,6.8,4.7,10.5,7.6c-0.8,1.2-1.4,2.3-1.8,3.3
			c-3.3,8.8,17,32.2,30.4,46.4c3.3,3.2,6.5,6.5,9.7,10c0.7,0.7,1.2,1.1,1.2,1.1l-0.3-0.2c10,10.8,19.8,22.6,29,35.5
			c5.6,7.8,10.7,15.6,15.5,23.6c3-6.6,5.3-13.1,6.7-19.5c2.9,5.4,5.6,11,7.9,16.6c0,0,0,0.1,0,0.1c7.1,17.1,11.2,35,10.7,53.1
			c0,0,0,0.1,0,0.1c-0.3,9.3-1.7,18.6-4.6,27.9c0,0-0.1,0-0.1-0.1c-1.8,5.7-4.3,11.4-7.3,17c-0.5,1-1,1.9-1.5,2.9
			c-1.2,2.1-2.5,4.2-3.9,6.3c-0.9,1.4-1.8,2.8-2.8,4.2c-1.3,1.9-2.8,3.8-4.3,5.6c-1.3,1.6-2.6,3.2-4,4.9c-1.5,1.7-3,3.4-4.6,5.1
			c-1.8,1.8-3.6,3.7-5.5,5.5c-1.6,1.5-3.1,3-4.8,4.5c-2.4,2.1-5,4.2-7.7,6.4c-1.5,1.2-2.9,2.4-4.4,3.5c-4.4,3.3-9,6.6-13.9,9.8
			C230.5,470.8,131.5,525.3,53,449.7c-4.2-4-7.9-8.2-11.4-12.5C40.5,436,39.6,434.7,38.6,433.4z"/>
		<path class="st4" d="M255,28.3c17.4,5.9,33.8,13,48.8,21c16.5,6.4,37.3,12.9,43.9,8.5c11.5-7.7,24.7-44.8,24.7-44.8
			s5-1.9,19.9,7.7l3.5,2.2c15.1,9.8,14.7,14.8,14.7,14.8S374.9,60.6,370.3,73c-3.2,8.6,17.1,31.5,30.4,45.3c3.3,3.1,6.5,6.4,9.7,9.7
			c0.7,0.7,1.2,1.1,1.2,1.1l-0.3-0.2c10,10.5,19.7,22.1,28.9,34.7c26.4,36.2,44.9,75.2,54.2,111.6c-35.5-22.2-70.6-55.6-98.5-95.6
			c-22.2-31.8-36.6-63.3-43.4-91.1l-1.6-1.1c1.2,18.8-2.2,40.2-10.8,61.9c-9.6,24-24.2,44.5-40.9,59.1c-2.5-23.8,1.4-50.6,12.2-76.1
			c8.5-20.1,20.2-36.8,33.3-49.2c-16.5,10.6-38.3,18.9-63.5,23.1c-26.5,4.4-52.1,3.5-73.6-1.5c18.3-12.8,42.9-22.7,71-27.3
			c2.4-0.4,4.9-0.7,7.3-1c-17.2-2.9-34.9-7.3-52.5-13.4c-37.5-12.9-68.6-31-90.5-50.7C176,10,215.2,14.9,255,28.3z"/>
	</g>
</g>
</svg>
