<?xml version="1.0" encoding="utf-8"?>
<!-- Generator: Adobe Illustrator 22.0.0, SVG Export Plug-In . SVG Version: 6.00 Build 0)  -->
<svg version="1.1" xmlns="http://www.w3.org/2000/svg" xmlns:xlink="http://www.w3.org/1999/xlink" x="0px" y="0px"
	 viewBox="0 0 500 268.7" style="enable-background:new 0 0 500 268.7;" xml:space="preserve">
<style type="text/css">
	.st0{fill:#FFD54D;}
	.st1{fill:#7D6D5F;}
	.st2{opacity:5.000000e-02;}
</style>
<g id="BACKGROUND">
</g>
<g id="OBJECTS">
	<g>
		<g>
			<path class="st0" d="M479,67.9c-0.1-29.4,21-45.2,21-45.2c-7.3-16.3-26.4-11.2-26.4-11.2c1.6,18.4-10.2,38.9-14.7,45.9
				c-2.4-0.3-4.9-0.4-7.4-0.2c-31,1.9-108.2,113.7-240.5,87.1C99.6,121.9,31.5,19.1,12.3,59.6C-14.6,116.3,65.6,226.1,190.8,252
				s209.8-12.6,264.4-88.3C491,114.1,491.6,82.9,479,67.9z"/>
			<path class="st1" d="M500,22.7c-7.3-16.3-26.4-11.2-26.4-11.2c0.6,6.8-0.7,13.9-2.7,20.5l3.5-1.5v9.4l5.9-5.4v8.3l5.8-2.9
				C492.2,28.6,500,22.7,500,22.7z"/>
		</g>
		<g class="st2">
			<path d="M479.1,65.9c-5,12-12.7,25.7-23.9,41.2c-54.6,75.8-139.2,114.2-264.4,88.3C99.7,176.6,32.4,113.3,12.9,58.4
				c-0.2,0.4-0.4,0.8-0.6,1.2C-14.6,116.3,65.6,226.1,190.8,252s209.8-12.6,264.4-88.3c35.7-49.6,36.4-80.7,23.8-95.8
				C479,67.2,479.1,66.6,479.1,65.9z"/>
		</g>
	</g>
</g>
</svg>
