<?xml version="1.0" encoding="utf-8"?>
<!-- Generator: Adobe Illustrator 22.0.0, SVG Export Plug-In . SVG Version: 6.00 Build 0)  -->
<svg version="1.1" id="Objects" xmlns="http://www.w3.org/2000/svg" xmlns:xlink="http://www.w3.org/1999/xlink" x="0px" y="0px"
	 viewBox="0 0 800 800" style="enable-background:new 0 0 800 800;" xml:space="preserve">
<style type="text/css">
	.st0{opacity:0.5;}
	.st1{fill:#AFB457;}
	.st2{fill:#BB2F4A;}
</style>
<g>
	<g class="st0">
		<ellipse transform="matrix(0.1765 -0.9843 0.9843 0.1765 -262.5875 428.8655)" cx="125" cy="371.4" rx="158.3" ry="77"/>
		<path d="M780,495.7L780,495.7c14.6-81.6-37.9-160.2-118.9-177.9l-405.6-88.5c-94.1-20.5-124,52.4-141,147.1l0,0
			c-17,94.8-14.3,173.5,81.1,186.9l411.1,57.9C688.8,632.8,765.4,577.4,780,495.7z"/>
		<path d="M782.9,385L782.9,385c18.2-55.5-24.2-119.9-95.9-145.7L327.8,110c-83.3-30-170.1-1.3-191.3,63.2l0,0
			c-21.1,64.5,31.9,139,116.8,164.1l366,108.4C692.5,467.4,764.7,440.6,782.9,385z"/>
		<path d="M744.3,600.5L744.3,600.5C742,659,679.9,704.6,603.7,703.9l-381.7-3.6c-88.5-0.8-160-57.9-157.4-125.7l0,0
			c2.6-67.8,78.2-119.2,166.5-113.3L612,486.8C688.1,491.9,746.5,542.1,744.3,600.5z"/>
		<path d="M80.5,390.3l9.4-52.2l-45.7-8.2c-14.4-2.6-28.2,7-30.8,21.4l0,0c-2.6,14.4,7,28.2,21.4,30.8L80.5,390.3z"/>
	</g>
	<g>
		<g>
			
				<ellipse transform="matrix(0.1765 -0.9843 0.9843 0.1765 -261.6032 428.042)" class="st1" cx="125" cy="370.4" rx="158.3" ry="77"/>
			<g>
				<path class="st2" d="M780,494.7L780,494.7c14.6-81.6-37.9-160.2-118.9-177.9l-405.6-88.5c-94.1-20.5-124,52.4-141,147.1l0,0
					c-17,94.8-14.3,173.5,81.1,186.9l411.1,57.9C688.8,631.8,765.4,576.4,780,494.7z"/>
				<path class="st2" d="M782.9,384L782.9,384c18.2-55.5-24.2-119.9-95.9-145.7L327.8,109c-83.3-30-170.1-1.3-191.3,63.2l0,0
					c-21.1,64.5,31.9,139,116.8,164.1l366,108.4C692.5,466.4,764.7,439.6,782.9,384z"/>
				<path class="st2" d="M744.3,599.5L744.3,599.5C742,658,679.9,703.6,603.7,702.9l-381.7-3.6c-88.5-0.8-160-57.9-157.4-125.7l0,0
					c2.6-67.8,78.2-119.2,166.5-113.3L612,485.8C688.1,490.9,746.5,541.1,744.3,599.5z"/>
			</g>
			<path class="st1" d="M80.5,389.3l9.4-52.2l-45.7-8.2c-14.4-2.6-28.2,7-30.8,21.4l0,0c-2.6,14.4,7,28.2,21.4,30.8L80.5,389.3z"/>
		</g>
	</g>
</g>
</svg>
