<?xml version="1.0" encoding="utf-8"?>
<!-- Generator: Adobe Illustrator 22.0.0, SVG Export Plug-In . SVG Version: 6.00 Build 0)  -->
<svg version="1.1" xmlns="http://www.w3.org/2000/svg" xmlns:xlink="http://www.w3.org/1999/xlink" x="0px" y="0px"
	 viewBox="0 0 500 500" style="enable-background:new 0 0 500 500;" xml:space="preserve">
<style type="text/css">
	.st0{fill:#7D6D5F;}
	.st1{fill:#D44163;}
	.st2{opacity:0.1;}
	.st3{opacity:0.1;fill:#FFFFFF;}
</style>
<g id="BACKGROUND">
</g>
<g id="OBJECTS">
	<g>
		<path class="st0" d="M105.7,340.7c0,0,83.8-64.2,132.5-300.6c0,0,0.6-10.8,2-34.6l29.9,1.7l2.4,40.5c0,0,38.6,171,117.6,314.8
			l-18.2-1c0,0-88.6-148.8-114.7-309c0,0-48,219.4-145.2,294.2L105.7,340.7z"/>
		<g>
			<path class="st1" d="M76,458.7c8.7-2.6,17.6,0.4,23.6,7.2c10.6,11.9,30.6,24.6,61.9,6.7c49.8-28.5,68.5-103.4,26.8-132
				c-23.2-15.9-39.5-10.8-53.5-7c-6.9,1.9-14.1-0.1-18.9-5.4c-9.8-10.7-20.9-23.7-49-22.6c-50.5,2-74.5,75.4-47.5,126
				C36.6,463.9,60.7,463.3,76,458.7z"/>
			<g class="st2">
				<path d="M188.3,340.6c-4.9-3.3-9.4-5.7-13.7-7.4c1.5,1.3,3,2.5,4.6,4c36,35.4,4.4,105.9-49.6,125.2c-11.9,4.2-21.7,5-29.8,3.7
					c10.6,11.8,30.6,24.3,61.7,6.5C211.3,444.1,230,369.1,188.3,340.6z"/>
			</g>
			<path class="st3" d="M64.8,327.6c6.7,4.9,5.9,17.4-1.8,28.1c-7.7,10.6-19.4,15.3-26.1,10.4c-6.7-4.9-5.9-17.4,1.8-28.1
				C46.3,327.3,58,322.7,64.8,327.6z"/>
		</g>
		<g>
			<path class="st1" d="M390.7,482c6.6-6.2,15.9-7.5,24.3-4.2c14.8,5.9,38.4,8.3,58.4-21.7c31.8-47.8,14.9-123.2-35.1-130
				c-27.9-3.8-40.2,8.1-50.9,17.7c-5.3,4.8-12.6,6.2-19.3,3.6c-13.5-5.2-29.3-11.8-54,1.7c-44.3,24.4-32.9,100.8,13.9,133.9
				C357.8,504.2,379.2,492.9,390.7,482z"/>
			<path class="st2" d="M438.3,326.1c29.8,20.3,34.4,74.8,8.5,111.9c-19.8,28.4-42,27-56,21.9c-8-2.9-17.3-1.4-24.2,4.9
				c-9.6,8.7-25.5,17.9-46.5,12.1c2.5,2.2,5.1,4.3,7.8,6.2c29.9,21.1,51.2,9.8,62.7-1.1c6.6-6.2,15.9-7.5,24.3-4.2
				c14.8,5.9,38.4,8.3,58.4-21.7C505.2,408.3,488.3,333,438.3,326.1z"/>
			<path class="st3" d="M336.6,364c6.7,4.9,5.9,17.4-1.8,28.1c-7.7,10.6-19.4,15.3-26.1,10.4c-6.7-4.9-5.9-17.4,1.8-28.1
				C318.2,363.7,329.9,359.1,336.6,364z"/>
		</g>
	</g>
</g>
</svg>
